<?xml version="1.0" encoding="iso-8859-1"?>
<!-- Uploaded to: SVG Repo, www.svgrepo.com, Generator: SVG Repo Mixer Tools -->
<svg fill="#000000" version="1.1" id="Layer_1" xmlns="http://www.w3.org/2000/svg" xmlns:xlink="http://www.w3.org/1999/xlink" 
	 viewBox="0 0 512 512" xml:space="preserve">
<g>
	<g>
		<path d="M484.097,342.328c-8.834-28.545-33.406-50.231-63.526-54.904V115.81h-26.224V103.77h-21.656V67.452h-13.116v48.357h-9.482
			V103.77h-20.916v-7.534h17.352V85.609h-17.352v-6.727h20.311V67.451H316.06v48.358h-21.859V78.883h13.722V67.452h-40.622v11.431
			h13.787v36.926h-37.664H159.89V67.452h-13.116v17.619h-16.007V67.452h-13.115v48.357H91.429v171.615
			c-30.12,4.673-54.693,26.358-63.526,54.904C11.258,351.759,0,369.637,0,390.095c0,30.248,24.609,54.857,54.857,54.857h402.286
			c30.248,0,54.857-24.609,54.857-54.857C512,369.637,500.742,351.759,484.097,342.328z M91.429,408.381
			c-14.542,0-36.571,0-36.571,0c-10.099,0-18.286-8.187-18.286-18.286c0-10.099,8.187-18.286,18.286-18.286h6.535
			c-0.285-1.992-0.44-4.025-0.44-6.095c0-19.327,12.854-35.643,30.476-40.889V408.381z M130.768,96.505h16.007v19.305h-16.007
			V96.505z M292.571,408.381h-73.143V371.81h73.143V408.381z M384,408.381h-54.857v-73.143H182.857v73.143H128v-256h256V408.381z
			 M457.143,408.381c0,0-22.029,0-36.571,0v-83.556c17.622,5.247,30.476,21.563,30.476,40.889c0,2.07-0.155,4.103-0.44,6.095h6.535
			c10.099,0,18.286,8.187,18.286,18.286C475.429,400.194,467.241,408.381,457.143,408.381z"/>
	</g>
</g>
<g>
	<g>
		<path d="M215.61,82.584c-1.143-2.916-2.768-5.515-4.875-7.801c-2.108-2.287-4.641-4.128-7.601-5.516
			c-2.959-1.388-6.254-2.086-9.885-2.086c-3.543,0-6.806,0.662-9.785,1.986c-2.983,1.323-5.561,3.094-7.736,5.313
			c-2.175,2.217-3.867,4.786-5.077,7.7c-1.211,2.916-1.816,5.942-1.816,9.081c0,3.094,0.583,6.096,1.749,9.011
			c1.167,2.916,2.801,5.506,4.909,7.769c2.108,2.265,4.641,4.091,7.6,5.482c2.961,1.39,6.255,2.083,9.888,2.083
			c3.54,0,6.804-0.673,9.785-2.016c2.982-1.343,5.549-3.128,7.7-5.347c2.154-2.219,3.835-4.776,5.046-7.668
			c1.211-2.892,1.815-5.907,1.815-9.047C217.326,88.481,216.754,85.5,215.61,82.584z M203.371,95.9
			c-0.425,1.525-1.075,2.882-1.951,4.069c-0.875,1.19-2.007,2.152-3.396,2.893c-1.391,0.738-3.026,1.109-4.909,1.109
			c-1.885,0-3.51-0.36-4.876-1.079c-1.369-0.716-2.5-1.657-3.396-2.822c-0.898-1.165-1.57-2.499-2.019-4.001
			c-0.447-1.503-0.672-3.062-0.672-4.675c0-1.568,0.212-3.104,0.639-4.609c0.425-1.499,1.086-2.846,1.983-4.035
			c0.896-1.187,2.027-2.141,3.397-2.859c1.365-0.718,2.992-1.075,4.875-1.075c1.838,0,3.441,0.347,4.809,1.041
			c1.367,0.695,2.511,1.614,3.429,2.758c0.918,1.143,1.603,2.466,2.052,3.969c0.449,1.503,0.673,3.06,0.673,4.675
			C204.01,92.829,203.797,94.375,203.371,95.9z"/>
	</g>
</g>
<g>
	<g>
		<path d="M260.575,94.892c-0.673-1.569-1.637-2.903-2.893-4.002c-1.254-1.098-2.768-2.052-4.54-2.859
			c-1.772-0.807-3.756-1.547-5.953-2.219c-1.391-0.447-2.634-0.83-3.733-1.143c-1.1-0.312-2.03-0.64-2.792-0.976
			c-0.763-0.335-1.346-0.706-1.749-1.108c-0.405-0.405-0.605-0.92-0.605-1.549c0-0.851,0.346-1.454,1.041-1.815
			c0.695-0.358,1.625-0.536,2.792-0.536c1.435,0,2.903,0.235,4.406,0.706c1.501,0.471,2.859,0.974,4.068,1.513
			c1.436,0.629,2.825,1.346,4.17,2.153l5.65-10.829c-1.076-0.536-2.287-1.109-3.632-1.715c-1.346-0.605-2.792-1.164-4.339-1.681
			c-1.547-0.517-3.15-0.942-4.809-1.279c-1.658-0.336-3.362-0.503-5.11-0.503c-2.377,0-4.631,0.349-6.76,1.041
			c-2.131,0.696-4.025,1.715-5.683,3.061c-1.659,1.346-2.972,3.026-3.935,5.044c-0.965,2.019-1.447,4.351-1.447,6.995
			c0,1.748,0.235,3.295,0.707,4.642c0.471,1.345,1.198,2.543,2.186,3.597c0.986,1.055,2.241,1.996,3.767,2.825
			c1.523,0.83,3.339,1.602,5.448,2.32c1.435,0.495,2.79,0.92,4.068,1.278c1.279,0.361,2.411,0.718,3.397,1.076
			c0.986,0.36,1.759,0.773,2.32,1.243c0.56,0.473,0.84,1.044,0.84,1.716c0,0.629-0.28,1.135-0.84,1.513
			c-0.561,0.382-1.558,0.573-2.993,0.573c-1.883,0-3.734-0.272-5.549-0.807c-1.816-0.538-3.443-1.143-4.876-1.815
			c-1.704-0.763-3.341-1.637-4.909-2.623l-5.65,11.5c1.435,0.852,2.993,1.614,4.674,2.287c1.682,0.673,3.43,1.256,5.247,1.749
			c1.816,0.492,3.641,0.874,5.481,1.143c1.84,0.271,3.633,0.405,5.381,0.405c2.197,0,4.382-0.26,6.558-0.774
			c2.176-0.518,4.126-1.357,5.853-2.525c1.725-1.164,3.116-2.723,4.17-4.675c1.053-1.952,1.58-4.359,1.58-7.23
			C261.583,98.366,261.248,96.461,260.575,94.892z"/>
	</g>
</g>
<g>
	<g>
		<rect x="164.571" y="188.952" width="36.571" height="36.571"/>
	</g>
</g>
<g>
	<g>
		<rect x="237.714" y="188.952" width="36.571" height="36.571"/>
	</g>
</g>
<g>
	<g>
		<rect x="310.857" y="188.952" width="36.571" height="36.571"/>
	</g>
</g>
<g>
	<g>
		<rect x="164.571" y="262.095" width="36.571" height="36.571"/>
	</g>
</g>
<g>
	<g>
		<rect x="237.714" y="262.095" width="36.571" height="36.571"/>
	</g>
</g>
<g>
	<g>
		<rect x="310.857" y="262.095" width="36.571" height="36.571"/>
	</g>
</g>
</svg>